RBDS002runT35_grf
version=1
nRows=34
nColumns=19
inDegrees=no
endheader
time	ground_force_r_vx	ground_force_r_vy	ground_force_r_vz	ground_force_r_px	ground_force_r_py	ground_force_r_pz	ground_force_r_mx	ground_force_r_my	ground_force_r_mz	ground_force_l_vx	ground_force_l_vy	ground_force_l_vz	ground_force_l_px	ground_force_l_py	ground_force_l_pz	ground_force_l_mx	ground_force_l_my	ground_force_l_mz
     22.49800000	      0.00000000	      0.00000000	      0.00000000	      0.00000000	      0.00000000	      0.00000000	      0.00000000	      0.00000000	      0.00000000	    256.84468634	   1207.65141840	    -39.22909571	      1.88119023	      0.00000000	      1.04961284	     -0.00000000	      1.71617046	     -0.00000000
     22.49900000	      0.00000000	      0.00000000	      0.00000000	      0.00000000	      0.00000000	      0.00000000	      0.00000000	      0.00000000	      0.00000000	    258.04078136	   1186.47245210	    -40.09409823	      1.87795179	      0.00000000	      1.04978640	     -0.00000000	      1.68233963	     -0.00000000
     22.50000000	      0.00000000	      0.00000000	      0.00000000	      0.00000000	      0.00000000	      0.00000000	      0.00000000	      0.00000000	      0.00000000	    259.23687638	   1165.29348580	    -40.95910076	      1.87471335	      0.00000000	      1.04995995	     -0.00000000	      1.64850879	     -0.00000000
     22.50100000	      0.00000000	      0.00000000	      0.00000000	      0.00000000	      0.00000000	      0.00000000	      0.00000000	      0.00000000	      0.00000000	    259.82631093	   1143.84403121	    -41.71387296	      1.87156648	      0.00000000	      1.05011700	     -0.00000000	      1.60151911	     -0.00000000
     22.50200000	      0.00000000	      0.00000000	      0.00000000	      0.00000000	      0.00000000	      0.00000000	      0.00000000	      0.00000000	      0.00000000	    260.41574549	   1122.39457661	    -42.46864516	      1.86841962	      0.00000000	      1.05027405	     -0.00000000	      1.55452942	     -0.00000000
     22.50300000	      0.00000000	      0.00000000	      0.00000000	      0.00000000	      0.00000000	      0.00000000	      0.00000000	      0.00000000	      0.00000000	    261.00518005	   1100.94512202	    -43.22341736	      1.86527275	      0.00000000	      1.05043110	     -0.00000000	      1.50753974	     -0.00000000
     22.50400000	      0.00000000	      0.00000000	      0.00000000	      0.00000000	      0.00000000	      0.00000000	      0.00000000	      0.00000000	      0.00000000	    261.19302775	   1079.41411638	    -43.89516392	      1.86220532	      0.00000000	      1.05057401	     -0.00000000	      1.45253782	     -0.00000000
     22.50500000	      0.00000000	      0.00000000	      0.00000000	      0.00000000	      0.00000000	      0.00000000	      0.00000000	      0.00000000	      0.00000000	    261.18008202	   1057.84233523	    -44.52539766	      1.85917760	      0.00000000	      1.05070986	     -0.00000000	      1.39352979	     -0.00000000
     22.50600000	      0.00000000	      0.00000000	      0.00000000	      0.00000000	      0.00000000	      0.00000000	      0.00000000	      0.00000000	      0.00000000	    261.16713629	   1036.27055407	    -45.15563141	      1.85614988	      0.00000000	      1.05084571	     -0.00000000	      1.33452176	     -0.00000000
     22.50700000	      0.00000000	      0.00000000	      0.00000000	      0.00000000	      0.00000000	      0.00000000	      0.00000000	      0.00000000	      0.00000000	    260.95725991	   1014.70652492	    -45.74028608	      1.85317144	      0.00000000	      1.05097295	     -0.00000000	      1.27204723	     -0.00000000
     22.50800000	      0.00000000	      0.00000000	      0.00000000	      0.00000000	      0.00000000	      0.00000000	      0.00000000	      0.00000000	      0.00000000	    260.35352220	    993.15799978	    -46.23378260	      1.85029155	      0.00000000	      1.05108295	     -0.00000000	      1.20263974	     -0.00000000
     22.50900000	      0.00000000	      0.00000000	      0.00000000	      0.00000000	      0.00000000	      0.00000000	      0.00000000	      0.00000000	      0.00000000	    259.74978450	    971.60947464	    -46.72727912	      1.84741167	      0.00000000	      1.05119296	     -0.00000000	      1.13323224	     -0.00000000
     22.51000000	      0.00000000	      0.00000000	      0.00000000	      0.00000000	      0.00000000	      0.00000000	      0.00000000	      0.00000000	      0.00000000	    259.14604679	    950.06094950	    -47.22077564	      1.84453178	      0.00000000	      1.05130296	     -0.00000000	      1.06382474	     -0.00000000
     22.51100000	      0.00000000	      0.00000000	      0.00000000	      0.00000000	      0.00000000	      0.00000000	      0.00000000	      0.00000000	      0.00000000	    257.97073925	    928.67698274	    -47.56783313	      1.84182866	      0.00000000	      1.05138269	     -0.00000000	      0.98603569	     -0.00000000
     22.51200000	      0.00000000	      0.00000000	      0.00000000	      0.00000000	      0.00000000	      0.00000000	      0.00000000	      0.00000000	      0.00000000	    256.79543170	    907.29301599	    -47.91489062	      1.83912553	      0.00000000	      1.05146242	     -0.00000000	      0.90824663	     -0.00000000
     22.51300000	      0.00000000	      0.00000000	      0.00000000	      0.00000000	      0.00000000	      0.00000000	      0.00000000	      0.00000000	      0.00000000	    255.62012415	    885.90904923	    -48.26194811	      1.83642240	      0.00000000	      1.05154215	     -0.00000000	      0.83045758	     -0.00000000
     22.51400000	      0.00000000	      0.00000000	      0.00000000	      0.00000000	      0.00000000	      0.00000000	      0.00000000	      0.00000000	      0.00000000	    254.08177156	    864.72506286	    -48.50680413	      1.83385591	      0.00000000	      1.05159899	     -0.00000000	      0.74863090	     -0.00000000
     22.51500000	      0.00000000	      0.00000000	      0.00000000	      0.00000000	      0.00000000	      0.00000000	      0.00000000	      0.00000000	      0.00000000	    252.36189646	    843.64106669	    -48.70055942	      1.83135773	      0.00000000	      1.05164440	     -0.00000000	      0.66478540	     -0.00000000
     22.51600000	      0.00000000	      0.00000000	      0.00000000	      0.00000000	      0.00000000	      0.00000000	      0.00000000	      0.00000000	      0.00000000	    250.64202136	    822.55707051	    -48.89431470	      1.82885955	      0.00000000	      1.05168980	     -0.00000000	      0.58093991	     -0.00000000
     22.51700000	      0.00000000	      0.00000000	      0.00000000	      0.00000000	      0.00000000	      0.00000000	      0.00000000	      0.00000000	      0.00000000	    248.75219792	    801.61573847	    -49.03571927	      1.82643852	      0.00000000	      1.05172259	     -0.00000000	      0.49591947	     -0.00000000
     22.51800000	      0.00000000	      0.00000000	      0.00000000	      0.00000000	      0.00000000	      0.00000000	      0.00000000	      0.00000000	      0.00000000	    246.52247782	    780.95973467	    -49.07242240	      1.82417175	      0.00000000	      1.05173017	     -0.00000000	      0.40854914	     -0.00000000
     22.51900000	      0.00000000	      0.00000000	      0.00000000	      0.00000000	      0.00000000	      0.00000000	      0.00000000	      0.00000000	      0.00000000	    244.29275772	    760.30373088	    -49.10912553	      1.82190499	      0.00000000	      1.05173775	     -0.00000000	      0.32117881	     -0.00000000
     22.52000000	      0.00000000	      0.00000000	      0.00000000	      0.00000000	      0.00000000	      0.00000000	      0.00000000	      0.00000000	      0.00000000	    242.06303762	    739.64772708	    -49.14582867	      1.81963823	      0.00000000	      1.05174533	     -0.00000000	      0.23380848	     -0.00000000
     22.52100000	      0.00000000	      0.00000000	      0.00000000	      0.00000000	      0.00000000	      0.00000000	      0.00000000	      0.00000000	      0.00000000	    239.36563211	    719.53897679	    -49.02503335	      1.81762659	      0.00000000	      1.05171232	     -0.00000000	      0.14554533	     -0.00000000
     22.52200000	      0.00000000	      0.00000000	      0.00000000	      0.00000000	      0.00000000	      0.00000000	      0.00000000	      0.00000000	      0.00000000	    236.66822660	    699.43022650	    -48.90423803	      1.81561495	      0.00000000	      1.05167930	     -0.00000000	      0.05728218	     -0.00000000
     22.52300000	      0.00000000	      0.00000000	      0.00000000	      0.00000000	      0.00000000	      0.00000000	      0.00000000	      0.00000000	      0.00000000	    233.97082109	    679.32147620	    -48.78344271	      1.81360331	      0.00000000	      1.05164629	     -0.00000000	     -0.03098097	     -0.00000000
     22.52400000	      0.00000000	      0.00000000	      0.00000000	      0.00000000	      0.00000000	      0.00000000	      0.00000000	      0.00000000	      0.00000000	    230.99434718	    659.65041572	    -48.55961598	      1.81177507	      0.00000000	      1.05158495	     -0.00000000	     -0.11808965	     -0.00000000
     22.52500000	      0.00000000	      0.00000000	      0.00000000	      0.00000000	      0.00000000	      0.00000000	      0.00000000	      0.00000000	      0.00000000	    227.87833909	    640.19820014	    -48.28427355	      1.81003852	      0.00000000	      1.05150944	     -0.00000000	     -0.20462109	     -0.00000000
     22.52600000	      0.00000000	      0.00000000	      0.00000000	      0.00000000	      0.00000000	      0.00000000	      0.00000000	      0.00000000	      0.00000000	    224.76233099	    620.74598456	    -48.00893111	      1.80830197	      0.00000000	      1.05143394	     -0.00000000	     -0.29115254	     -0.00000000
     22.52700000	      0.00000000	      0.00000000	      0.00000000	      0.00000000	      0.00000000	      0.00000000	      0.00000000	      0.00000000	      0.00000000	    221.52520998	    601.54536531	    -47.68418596	      1.80666222	      0.00000000	      1.05134398	     -0.00000000	     -0.37626985	     -0.00000000
     22.52800000	      0.00000000	      0.00000000	      0.00000000	      0.00000000	      0.00000000	      0.00000000	      0.00000000	      0.00000000	      0.00000000	    218.04586316	    582.84793874	    -47.26063539	      1.80521606	      0.00000000	      1.05122512	     -0.00000000	     -0.45855890	     -0.00000000
     22.52900000	      0.00000000	      0.00000000	      0.00000000	      0.00000000	      0.00000000	      0.00000000	      0.00000000	      0.00000000	      0.00000000	    214.56651633	    564.15051216	    -46.83708482	      1.80376990	      0.00000000	      1.05110625	     -0.00000000	     -0.54084795	     -0.00000000
     22.53000000	      0.00000000	      0.00000000	      0.00000000	      0.00000000	      0.00000000	      0.00000000	      0.00000000	      0.00000000	      0.00000000	    211.08716951	    545.45308559	    -46.41353425	      1.80232374	      0.00000000	      1.05098739	     -0.00000000	     -0.62313699	     -0.00000000
     22.53100000	      0.00000000	      0.00000000	      0.00000000	      0.00000000	      0.00000000	      0.00000000	      0.00000000	      0.00000000	      0.00000000	    207.30496960	    527.59682060	    -45.85138559	      1.80117781	      0.00000000	      1.05082541	     -0.00000000	     -0.69888786	     -0.00000000
